<svg xmlns="http://www.w3.org/2000/svg" xmlns:xlink="http://www.w3.org/1999/xlink" width="58px" height="58px" viewBox="0 0 58 58" version="1.1">
    <!-- Generator: Sketch 51.1 (57501) - http://www.bohemiancoding.com/sketch -->
    <title>001 - Love Yin Yang</title>
    <desc>Created with Sketch.</desc>
    <defs/>
    <g id="Page-1" stroke="none" stroke-width="1" fill="none" fill-rule="evenodd">
        <g id="001---Love-Yin-Yang" fill="#000000" fill-rule="nonzero">
            <path d="M32,12 C31.1523248,12.0064228 30.3465145,12.3694004 29.78,13 C29.589237,13.2332881 29.3043487,13.3693158 29.003,13.371 L28.993,13.371 C28.6923469,13.3699748 28.4081102,13.2337321 28.219,13 C27.6527195,12.3696565 26.8473261,12.0067032 26,12 C24.748,12 24,13.441 24,14.833 C24,16.833 25.317,19.602 29,20.942 C32.683,19.602 34,16.837 34,14.833 C34,13.441 33.252,12 32,12 Z" id="Shape"/>
            <path d="M29,30 C23.5494474,30.0040184 18.6319279,26.7278514 16.5361824,21.6963119 C14.4404368,16.6647724 15.5782286,10.8664366 19.42,7 C9.00257024,11.5418362 3.1987278,22.7675212 5.51578658,33.8932731 C7.83284537,45.0190251 17.635534,52.9944804 29,53 C35.3512745,52.9999999 40.4999998,47.8512745 40.4999998,41.5 C40.4999998,35.1487255 35.3512745,30.0000001 29,30 Z M29.313,47.95 C29.1097109,48.0169958 28.8902891,48.0169958 28.687,47.95 C23.751,46.321 22,42.56 22,39.833 C22,37.123 23.757,35 26,35 C27.0846263,35.0028415 28.1384226,35.3611323 29,36.02 C29.8615774,35.3611323 30.9153737,35.0028415 32,35 C34.243,35 36,37.123 36,39.833 C36,42.56 34.249,46.321 29.313,47.95 Z" id="Shape"/>
            <path d="M32,37 C31.1523248,37.0064228 30.3465145,37.3694004 29.78,38 C29.589237,38.2332881 29.3043487,38.3693158 29.003,38.371 L28.993,38.371 C28.6923469,38.3699748 28.4081102,38.2337321 28.219,38 C27.6527195,37.3696565 26.8473261,37.0067032 26,37 C24.748,37 24,38.441 24,39.833 C24,41.833 25.317,44.602 29,45.942 C32.683,44.602 34,41.842 34,39.833 C34,38.441 33.252,37 32,37 Z" id="Shape"/>
            <path d="M29,0 C12.9837423,-2.66453526e-15 -1.55431223e-15,12.9837423 -3.55271368e-15,29 C-5.55111512e-15,45.0162577 12.9837423,58 29,58 C45.0162577,58 58,45.0162577 58,29 C58,12.9837423 45.0162577,6.66133815e-15 29,0 Z M29,55 C14.6405965,55 3,43.3594035 3,29 C3,14.6405965 14.6405965,3 29,3 C43.3594035,3 55,14.6405965 55,29 C54.983468,43.3525501 43.3525501,54.983468 29,55 Z" id="Shape"/>
            <path d="M29,5 C22.6487254,5 17.5,10.1487254 17.5,16.5 C17.5,22.8512746 22.6487254,28 29,28 C34.4505526,27.9959816 39.3680721,31.2721486 41.4638176,36.3036881 C43.5595632,41.3352276 42.4217714,47.1335634 38.58,51 C48.9974298,46.4581638 54.8012722,35.2324788 52.4842134,24.1067269 C50.1671546,12.9809749 40.364466,5.00551961 29,5 Z M29.313,22.95 C29.1097109,23.0169958 28.8902891,23.0169958 28.687,22.95 C23.751,21.321 22,17.56 22,14.833 C22,12.123 23.757,10 26,10 C27.0846263,10.0028415 28.1384226,10.3611323 29,11.02 C29.8615774,10.3611323 30.9153737,10.0028415 32,10 C34.243,10 36,12.123 36,14.833 C36,17.56 34.249,21.321 29.313,22.95 Z" id="Shape"/>
        </g>
    </g>
</svg>